<svg xmlns="http://www.w3.org/2000/svg" width="512" height="512" viewBox="0 0 512 512" version="1.1"><path d="M 135.500 86.028 C 68.331 94.469, 11.662 175.365, 1.020 278 C -0.526 292.909, -0.235 325.660, 1.550 337.683 C 8.400 383.816, 32.139 414.122, 68.922 423.695 C 82.099 427.124, 102.344 427.339, 115.221 424.186 C 150.166 415.630, 177.485 385.545, 223.449 305 C 231.766 290.425, 242.380 271.654, 247.036 263.286 C 251.691 254.918, 255.729 248.055, 256.008 248.036 C 256.288 248.016, 268.751 268.363, 283.704 293.250 C 315.159 345.602, 321.546 355.589, 335.314 373.949 C 357.519 403.563, 376.789 418.343, 400.791 424.172 C 413.003 427.138, 434.096 427.110, 445.500 424.114 C 469.113 417.909, 485.868 403.850, 497.476 380.500 C 504.614 366.140, 511 343.178, 511 331.869 C 511 330.291, 511.466 329, 512.035 329 C 513.401 329, 512.669 285.742, 511.096 273.500 C 504.113 219.158, 488.261 175.392, 463.288 141.500 C 454.785 129.961, 436.697 111.978, 426.760 105.185 C 396.290 84.356, 363.689 79.920, 333.782 92.533 C 315.102 100.411, 291.062 120.817, 271.972 145 C 267.413 150.775, 263.394 155.500, 263.040 155.500 C 262.686 155.500, 258.322 150.775, 253.343 145 C 218.519 104.611, 189.410 87.478, 152.500 85.645 C 147 85.372, 139.350 85.545, 135.500 86.028 M 354.500 131.170 C 335.809 134.709, 315.065 152.951, 294.099 184.287 L 288.888 192.075 298.327 206.787 C 303.518 214.879, 316.519 236.125, 327.219 254 C 337.918 271.875, 352.432 295.500, 359.473 306.500 C 394.334 360.966, 405.113 371.061, 427.054 369.791 C 453.938 368.234, 465.287 343.443, 462.096 293.242 C 460.173 262.999, 456.261 241.759, 448.045 216.960 C 434.786 176.939, 413.412 147.885, 388.500 136.020 C 381.952 132.902, 369.295 129.935, 363.292 130.112 C 361.206 130.173, 357.250 130.650, 354.500 131.170 M 135.112 143.513 C 96.742 154.315, 63.732 215.063, 56.932 287.389 C 55.315 304.595, 56.187 326.098, 58.924 336.500 C 63.018 352.058, 69.713 361.748, 79.786 366.694 C 84.890 369.201, 86.567 369.500, 95.500 369.500 C 104.709 369.500, 106.043 369.243, 112.367 366.248 C 125.700 359.933, 142.782 340.097, 166.849 302.981 C 178.126 285.591, 217.605 224.210, 225.232 212.211 L 229.229 205.922 219.205 192.711 C 192.320 157.279, 173.342 143.590, 149.500 142.433 C 143.299 142.132, 138.824 142.468, 135.112 143.513 M 0.430 307 C 0.430 319.925, 0.573 325.212, 0.747 318.750 C 0.921 312.288, 0.921 301.712, 0.747 295.250 C 0.573 288.788, 0.430 294.075, 0.430 307" stroke="none" fill="#0564e0" fill-rule="evenodd"/></svg>