<svg xmlns="http://www.w3.org/2000/svg" width="225" height="225" viewBox="0 0 225 225" version="1.1"><path d="M 188.500 69.485 C 180.407 71.275, 174.549 73.949, 168.154 78.775 C 163.178 82.530, 155 92.058, 155 94.100 C 155 94.611, 166.472 95, 181.500 95 L 208 95 208 82.117 C 208 69.601, 207.936 69.216, 205.750 68.630 C 202.216 67.683, 195.045 68.039, 188.500 69.485 M 17 82.477 L 17 95 42.500 95 C 56.525 95, 68 94.622, 68 94.160 C 68 93.698, 64.470 88.185, 60.155 81.910 L 52.311 70.500 34.655 70.227 L 17 69.954 17 82.477 M 78.433 71.314 C 78.156 72.037, 78.057 77.550, 78.214 83.564 L 78.500 94.500 93.750 94.776 L 109 95.052 109 82.526 L 109 70 93.969 70 C 82.474 70, 78.819 70.309, 78.433 71.314 M 115 82.500 L 115 95 131 95 L 147 95 147 82.500 L 147 70 131 70 L 115 70 115 82.500 M 17 104.500 L 17 111 63 111 L 109 111 109 104.500 L 109 98 93.500 98 L 78 98 78 103.237 L 78 108.473 74.473 103.237 L 70.947 98 43.973 98 L 17 98 17 104.500 M 114.917 98.413 C 114.688 98.641, 114.652 101.566, 114.839 104.913 L 115.178 111 131.089 111 L 147 111 147 104.500 L 147 98 131.167 98 C 122.458 98, 115.146 98.186, 114.917 98.413 M 152.170 101.250 C 151.629 103.037, 150.930 105.963, 150.618 107.750 L 150.050 111 166.525 111 C 182.508 111, 183 110.938, 183 108.934 C 183 106.415, 184.567 103.250, 187.299 100.250 L 189.349 98 171.252 98 L 153.155 98 152.170 101.250 M 17 119.500 L 17 125 32.443 125 L 47.885 125 48.193 120.820 L 48.500 116.640 51.386 120.820 L 54.272 125 81.636 125 L 109 125 109 119.500 L 109 114 63 114 L 17 114 17 119.500 M 115 119.475 L 115 125 131.052 125 L 147.105 125 146.802 119.750 L 146.500 114.500 130.750 114.225 L 115 113.949 115 119.475 M 150.806 114.527 C 150.516 114.817, 150.646 116.955, 151.096 119.277 C 151.545 121.600, 151.932 123.838, 151.956 124.250 C 151.980 124.662, 160.311 125, 170.470 125 L 188.940 125 186.513 121.424 C 185.179 119.458, 183.812 116.983, 183.476 115.924 C 182.907 114.132, 181.780 114, 167.099 114 C 158.428 114, 151.096 114.237, 150.806 114.527 M 17 131.500 L 17 135 32.500 135 L 48 135 48 131.500 L 48 128 32.500 128 L 17 128 17 131.500 M 58.861 131.250 L 60.918 134.500 84.959 134.768 L 109 135.036 109 131.518 L 109 128 82.902 128 L 56.804 128 58.861 131.250 M 115 131.500 L 115 135 131 135 L 147 135 147 131.500 L 147 128 131 128 L 115 128 115 131.500 M 154 128.550 C 154 128.852, 154.687 130.427, 155.526 132.050 L 157.051 135 182.526 135 L 208 135 208 131.500 L 208 128 181 128 C 166.150 128, 154 128.247, 154 128.550 M 17 140.500 L 17 143 32.861 143 L 48.723 143 48.245 140.500 L 47.767 138 32.383 138 L 17 138 17 140.500 M 64 138.845 C 64 139.310, 64.823 140.435, 65.829 141.345 C 67.406 142.773, 70.497 143, 88.329 143 L 109 143 109 140.500 L 109 138 86.500 138 C 74.125 138, 64 138.380, 64 138.845 M 115 140.500 L 115 143 131 143 L 147 143 147 140.500 L 147 138 131 138 L 115 138 115 140.500 M 161.249 140.250 C 162.715 142.459, 163.156 142.505, 185.371 142.769 L 208 143.038 208 140.519 L 208 138 183.878 138 L 159.756 138 161.249 140.250 M 17 147.975 C 17 149.924, 17.599 150, 33.073 150 C 47.843 150, 49.119 149.858, 48.811 148.250 C 48.510 146.686, 46.802 146.471, 32.737 146.225 C 17.510 145.958, 17 146.015, 17 147.975 M 70.393 147.582 C 70.727 148.452, 71 149.352, 71 149.582 C 71 149.812, 79.550 150, 90 150 C 108.333 150, 109 149.930, 109 148 C 109 146.068, 108.333 146, 89.393 146 C 71.925 146, 69.852 146.173, 70.393 147.582 M 115 147.975 C 115 149.924, 115.599 150, 131.073 150 C 145.843 150, 147.119 149.858, 146.811 148.250 C 146.510 146.686, 144.802 146.471, 130.737 146.225 C 115.510 145.958, 115 146.015, 115 147.975 M 169 146.839 C 169 149.143, 174.976 150, 191.047 150 C 207.333 150, 208 149.921, 208 148 C 208 146.068, 207.333 146, 188.500 146 C 177.775 146, 169 146.378, 169 146.839 M 17 154 C 17 154.625, 23 155, 33 155 C 43 155, 49 154.625, 49 154 C 49 153.375, 43 153, 33 153 C 23 153, 17 153.375, 17 154 M 75 154 C 75 154.627, 81.333 155, 92 155 C 102.667 155, 109 154.627, 109 154 C 109 153.373, 102.667 153, 92 153 C 81.333 153, 75 153.373, 75 154 M 115 154 C 115 154.625, 121 155, 131 155 C 141 155, 147 154.625, 147 154 C 147 153.375, 141 153, 131 153 C 121 153, 115 153.375, 115 154 M 183.221 154.064 C 185.976 155.669, 200.153 157.391, 204.250 156.617 C 206.540 156.185, 208 155.343, 208 154.455 C 208 153.253, 205.692 153.005, 194.750 153.030 C 185.401 153.052, 182.007 153.356, 183.221 154.064" stroke="none" fill="#f2f6f7" fill-rule="evenodd"/><path d="M -0 112.504 L -0 225.009 112.750 224.754 L 225.500 224.500 225.754 112.250 L 226.009 0 113.004 0 L 0 0 -0 112.504 M 0.483 113 C 0.483 174.875, 0.603 200.188, 0.750 169.250 C 0.897 138.313, 0.897 87.688, 0.750 56.750 C 0.603 25.813, 0.483 51.125, 0.483 113 M 188.500 69.485 C 180.407 71.275, 174.549 73.949, 168.154 78.775 C 163.178 82.530, 155 92.058, 155 94.100 C 155 94.611, 166.472 95, 181.500 95 L 208 95 208 82.117 C 208 69.601, 207.936 69.216, 205.750 68.630 C 202.216 67.683, 195.045 68.039, 188.500 69.485 M 17 82.477 L 17 95 42.500 95 C 56.525 95, 68 94.622, 68 94.160 C 68 93.698, 64.470 88.185, 60.155 81.910 L 52.311 70.500 34.655 70.227 L 17 69.954 17 82.477 M 78.433 71.314 C 78.156 72.037, 78.057 77.550, 78.214 83.564 L 78.500 94.500 93.750 94.776 L 109 95.052 109 82.526 L 109 70 93.969 70 C 82.474 70, 78.819 70.309, 78.433 71.314 M 115 82.500 L 115 95 131 95 L 147 95 147 82.500 L 147 70 131 70 L 115 70 115 82.500 M 17 104.500 L 17 111 63 111 L 109 111 109 104.500 L 109 98 93.500 98 L 78 98 78 103.237 L 78 108.473 74.473 103.237 L 70.947 98 43.973 98 L 17 98 17 104.500 M 114.917 98.413 C 114.688 98.641, 114.652 101.566, 114.839 104.913 L 115.178 111 131.089 111 L 147 111 147 104.500 L 147 98 131.167 98 C 122.458 98, 115.146 98.186, 114.917 98.413 M 152.170 101.250 C 151.629 103.037, 150.930 105.963, 150.618 107.750 L 150.050 111 166.525 111 C 182.508 111, 183 110.938, 183 108.934 C 183 106.415, 184.567 103.250, 187.299 100.250 L 189.349 98 171.252 98 L 153.155 98 152.170 101.250 M 17 119.500 L 17 125 32.443 125 L 47.885 125 48.193 120.820 L 48.500 116.640 51.386 120.820 L 54.272 125 81.636 125 L 109 125 109 119.500 L 109 114 63 114 L 17 114 17 119.500 M 115 119.475 L 115 125 131.052 125 L 147.105 125 146.802 119.750 L 146.500 114.500 130.750 114.225 L 115 113.949 115 119.475 M 150.806 114.527 C 150.516 114.817, 150.646 116.955, 151.096 119.277 C 151.545 121.600, 151.932 123.838, 151.956 124.250 C 151.980 124.662, 160.311 125, 170.470 125 L 188.940 125 186.513 121.424 C 185.179 119.458, 183.812 116.983, 183.476 115.924 C 182.907 114.132, 181.780 114, 167.099 114 C 158.428 114, 151.096 114.237, 150.806 114.527 M 17 131.500 L 17 135 32.500 135 L 48 135 48 131.500 L 48 128 32.500 128 L 17 128 17 131.500 M 58.861 131.250 L 60.918 134.500 84.959 134.768 L 109 135.036 109 131.518 L 109 128 82.902 128 L 56.804 128 58.861 131.250 M 115 131.500 L 115 135 131 135 L 147 135 147 131.500 L 147 128 131 128 L 115 128 115 131.500 M 154 128.550 C 154 128.852, 154.687 130.427, 155.526 132.050 L 157.051 135 182.526 135 L 208 135 208 131.500 L 208 128 181 128 C 166.150 128, 154 128.247, 154 128.550 M 17 140.500 L 17 143 32.861 143 L 48.723 143 48.245 140.500 L 47.767 138 32.383 138 L 17 138 17 140.500 M 64 138.845 C 64 139.310, 64.823 140.435, 65.829 141.345 C 67.406 142.773, 70.497 143, 88.329 143 L 109 143 109 140.500 L 109 138 86.500 138 C 74.125 138, 64 138.380, 64 138.845 M 115 140.500 L 115 143 131 143 L 147 143 147 140.500 L 147 138 131 138 L 115 138 115 140.500 M 161.249 140.250 C 162.715 142.459, 163.156 142.505, 185.371 142.769 L 208 143.038 208 140.519 L 208 138 183.878 138 L 159.756 138 161.249 140.250 M 17 147.975 C 17 149.924, 17.599 150, 33.073 150 C 47.843 150, 49.119 149.858, 48.811 148.250 C 48.510 146.686, 46.802 146.471, 32.737 146.225 C 17.510 145.958, 17 146.015, 17 147.975 M 70.393 147.582 C 70.727 148.452, 71 149.352, 71 149.582 C 71 149.812, 79.550 150, 90 150 C 108.333 150, 109 149.930, 109 148 C 109 146.068, 108.333 146, 89.393 146 C 71.925 146, 69.852 146.173, 70.393 147.582 M 115 147.975 C 115 149.924, 115.599 150, 131.073 150 C 145.843 150, 147.119 149.858, 146.811 148.250 C 146.510 146.686, 144.802 146.471, 130.737 146.225 C 115.510 145.958, 115 146.015, 115 147.975 M 169 146.839 C 169 149.143, 174.976 150, 191.047 150 C 207.333 150, 208 149.921, 208 148 C 208 146.068, 207.333 146, 188.500 146 C 177.775 146, 169 146.378, 169 146.839 M 17 154 C 17 154.625, 23 155, 33 155 C 43 155, 49 154.625, 49 154 C 49 153.375, 43 153, 33 153 C 23 153, 17 153.375, 17 154 M 75 154 C 75 154.627, 81.333 155, 92 155 C 102.667 155, 109 154.627, 109 154 C 109 153.373, 102.667 153, 92 153 C 81.333 153, 75 153.373, 75 154 M 115 154 C 115 154.625, 121 155, 131 155 C 141 155, 147 154.625, 147 154 C 147 153.375, 141 153, 131 153 C 121 153, 115 153.375, 115 154 M 183.221 154.064 C 185.976 155.669, 200.153 157.391, 204.250 156.617 C 206.540 156.185, 208 155.343, 208 154.455 C 208 153.253, 205.692 153.005, 194.750 153.030 C 185.401 153.052, 182.007 153.356, 183.221 154.064" stroke="none" fill="#1263ab" fill-rule="evenodd"/></svg>