<svg xmlns="http://www.w3.org/2000/svg" width="497" height="544" viewBox="0 0 497 544" version="1.1"><path d="M 301.265 152.523 C 284.692 157.045, 274.824 166.818, 262.360 191.050 L 257.500 200.500 257.230 179.250 L 256.960 158 222.480 158 L 188 158 188 294 L 188 430 222.421 430 L 256.841 430 257.286 362.750 C 257.742 293.841, 258.047 288.055, 262.033 272.654 C 266.852 254.036, 275.915 244.775, 293.007 241.005 C 298.532 239.786, 314.767 240.093, 320.260 241.520 L 323.021 242.237 322.760 196.869 L 322.500 151.500 314.500 151.297 C 310.007 151.183, 304.205 151.720, 301.265 152.523" stroke="none" fill="#fbfafa" fill-rule="evenodd"/><path d="M 380.883 22.046 C 323.910 27.126, 248.498 70.559, 179.650 137.944 C 95.992 219.825, 34.043 326.020, 22.475 407.380 C 20.593 420.621, 20.598 443.431, 22.485 454.255 C 27.504 483.033, 43.650 505.437, 66.728 515.643 C 79.983 521.505, 98.248 523.867, 116.002 522.016 C 204.698 512.765, 327.433 417.513, 407.232 296 C 421.560 274.181, 428.990 261.295, 440.097 239 C 476.469 165.990, 485.504 102.587, 465.251 62.493 C 457.001 46.162, 443.310 33.791, 426.471 27.453 C 413.421 22.541, 397.073 20.602, 380.883 22.046 M 301.265 152.523 C 284.692 157.045, 274.824 166.818, 262.360 191.050 L 257.500 200.500 257.230 179.250 L 256.960 158 222.480 158 L 188 158 188 294 L 188 430 222.421 430 L 256.841 430 257.286 362.750 C 257.742 293.841, 258.047 288.055, 262.033 272.654 C 266.852 254.036, 275.915 244.775, 293.007 241.005 C 298.532 239.786, 314.767 240.093, 320.260 241.520 L 323.021 242.237 322.760 196.869 L 322.500 151.500 314.500 151.297 C 310.007 151.183, 304.205 151.720, 301.265 152.523" stroke="none" fill="#e41c24" fill-rule="evenodd"/></svg>