<svg xmlns="http://www.w3.org/2000/svg" width="256" height="256" viewBox="0 0 256 256" version="1.1"><path d="" stroke="none" fill="#a06cfc" fill-rule="evenodd"/><path d="M 188.250 77.662 C 186.500 78.368, 186.690 81.907, 188.907 89.907 L 190.814 96.788 187.422 100.076 C 183.668 103.714, 183.280 103.664, 182.442 99.427 L 181.863 96.500 184.181 95.500 C 185.457 94.950, 186.641 93.512, 186.812 92.305 L 187.125 90.111 182.812 88.997 C 180.441 88.384, 174.389 86.784, 169.365 85.441 C 158.422 82.517, 156.808 82.450, 154.655 84.829 C 151.487 88.329, 152.575 89.534, 160.616 91.430 C 164.805 92.417, 169.667 93.622, 171.421 94.106 L 174.611 94.987 176.419 101.957 C 178.973 111.804, 185.257 116, 197.449 116 L 200.442 116 206.134 110.367 L 211.827 104.734 219.731 106.867 C 230.146 109.677, 232.552 109.613, 234.612 106.469 C 236.854 103.048, 237.680 103.450, 217.399 98.087 L 213.298 97.003 211.557 90.574 C 209.119 81.567, 196.246 74.436, 188.250 77.662 M 194 84.234 C 194 84.384, 194.876 87.568, 195.946 91.310 L 197.892 98.114 194.306 102.084 C 192.333 104.267, 190.971 106.305, 191.279 106.612 C 191.586 106.920, 192.307 106.294, 192.881 105.223 C 193.454 104.151, 195.250 102.725, 196.871 102.053 L 199.819 100.833 201.973 101.986 L 204.128 103.139 205.564 101.947 C 208.495 99.515, 205.840 88.219, 201.904 86.372 C 199.443 85.217, 194 83.745, 194 84.234 M 30.271 91.964 C 24.819 94.439, 22.009 98.981, 22.004 105.327 L 22 110.154 24.763 112.916 C 26.286 114.439, 30.514 116.674, 34.187 117.896 C 47.210 122.230, 45.168 130.472, 31.913 127.074 C 26.523 125.693, 24.266 126.419, 21.679 130.368 L 20.074 132.817 21.287 133.783 C 29.942 140.681, 47.284 139.215, 51.359 131.240 C 56.445 121.286, 53.065 113.979, 41.539 110.013 C 29.171 105.758, 29.862 98.964, 42.503 100.544 L 47.894 101.217 50.447 98.463 C 56.498 91.934, 41.195 87.005, 30.271 91.964 M 196.965 106.542 L 195.685 108.085 196.850 109.250 L 198.014 110.414 199.625 108.803 C 200.512 107.917, 200.932 106.699, 200.559 106.096 C 199.624 104.582, 198.473 104.725, 196.965 106.542 M 99.878 107.540 C 97.337 108.335, 94.694 109.664, 94.006 110.493 L 92.755 112 94.079 113.595 L 95.402 115.190 101.747 114.510 C 110.080 113.618, 111 114.417, 111 122.551 C 111 130.202, 109.478 132.250, 104.126 131.803 L 100.500 131.500 100.500 129.513 C 100.500 128.288, 101.649 126.984, 103.500 126.109 C 106.919 124.493, 107.963 123.246, 107.985 120.750 L 108 119 104.520 119 C 99.449 119, 93.156 121.840, 91.508 124.871 L 90.080 127.500 90.040 123.218 C 89.926 110.978, 78.475 103.083, 68.395 108.296 L 65.463 109.812 63.540 108.406 C 62.483 107.633, 60.354 107, 58.809 107 L 56 107 56 130.631 L 56 154.262 59.747 153.654 C 64.760 152.840, 66 150.799, 66 143.360 L 66 137.102 69.468 138.551 C 76.675 141.562, 83.979 139.178, 87.628 132.623 L 89.785 128.747 90.445 131.748 C 90.807 133.398, 92.225 135.802, 93.594 137.089 L 96.085 139.429 101.293 139.417 C 104.548 139.410, 107.485 138.754, 109.129 137.667 L 111.758 135.928 112.348 137.464 C 112.743 138.494, 114.266 139, 116.969 139 L 121 139 121 128.520 C 121 109.603, 114.362 103.010, 99.878 107.540 M 131.450 108.407 C 119.523 113.602, 118.835 131.587, 130.329 137.723 C 134.732 140.074, 144.729 140.063, 148.330 137.703 L 151.072 135.907 148.943 133.203 L 146.814 130.500 141.325 130.498 L 135.836 130.496 134.418 128.557 C 132.313 125.678, 132.617 119.657, 134.974 117.523 L 136.949 115.736 141.131 116.405 L 145.314 117.074 148.157 114.350 C 154.002 108.750, 141.155 104.180, 131.450 108.407 M 159.841 108.344 C 147.881 113.659, 146.389 129.310, 157.087 137.231 C 162.478 141.224, 172.764 140.752, 178.093 136.268 L 181.245 133.616 179.011 131.808 C 176.603 129.858, 171.505 129.374, 170.500 131 C 169.317 132.915, 164.391 132.045, 162 129.500 L 159.651 127 170.826 127 L 182 127 182 122.619 L 182 118.237 178.568 115.619 C 176.680 114.179, 174.819 111.989, 174.433 110.751 C 173.209 106.828, 165.947 105.631, 159.841 108.344 M 163.389 114.980 C 162.228 115.449, 161.005 116.545, 160.670 117.416 L 160.063 119 166.067 119 L 172.070 119 171.063 117.118 C 169.487 114.173, 167.059 113.497, 163.389 114.980 M 66.994 118.734 C 63.615 123.030, 65.436 129.140, 70.472 130.404 C 75.901 131.766, 80.913 126.775, 79.554 121.359 C 78.078 115.480, 70.758 113.950, 66.994 118.734 M 79.500 145.982 C 66.226 148.949, 66.180 161.905, 79.430 165.824 C 82.691 166.788, 85.528 168.084, 85.735 168.704 C 86.335 170.506, 82.270 171.244, 78.533 170.011 C 74.646 168.728, 71.744 169.741, 70.006 172.989 L 68.966 174.931 71.966 176.482 C 82.519 181.940, 95.905 177.550, 96.079 168.576 L 96.158 164.500 97.206 167.500 C 101.030 178.443, 116.023 182.236, 124.734 174.463 L 127.500 171.995 125.559 170.498 C 123.283 168.742, 118.715 168.547, 115.844 170.084 C 113.502 171.337, 108.494 169.729, 107.616 167.442 L 107.088 166.067 117.794 165.783 L 128.500 165.500 128.847 163.044 C 129.375 159.297, 127.117 152.819, 124.205 149.734 C 115.662 140.681, 98.366 146.711, 96.462 159.406 L 95.803 163.803 93.941 161.941 C 92.917 160.917, 89.594 159.357, 86.558 158.474 C 78.225 156.051, 77.976 152.344, 86.234 153.657 C 89.974 154.251, 95 152.156, 95 150.003 C 95 147.406, 84.878 144.780, 79.500 145.982 M 146.542 145.699 C 145.465 145.989, 143.616 146.861, 142.433 147.636 L 140.282 149.045 139.019 147.523 C 138.324 146.685, 136.235 146, 134.378 146 L 131 146 131 162 L 131 178 136 178 L 141 178 141 168.434 C 141 157.455, 141.883 155, 145.835 155 C 150.220 155, 151 156.616, 151 165.700 L 151 174 153 176 C 154.133 177.133, 156.333 178, 158.077 178 L 161.155 178 160.827 164.520 L 160.500 151.040 158 148.588 C 155.459 146.096, 150.091 144.743, 146.542 145.699 M 172.500 145.984 C 159.494 148.898, 159.448 161.984, 172.430 165.824 C 175.691 166.788, 178.541 168.122, 178.763 168.788 C 179.417 170.750, 176.018 171.408, 172.256 170.048 L 168.764 168.785 166.132 170.749 C 160.316 175.087, 164.557 178.515, 175.701 178.482 L 181.903 178.463 184.701 176.393 C 186.241 175.255, 188.178 172.919, 189.006 171.203 L 190.511 168.083 192.160 170.956 C 196.833 179.098, 209.657 180.941, 218.387 174.724 L 221.293 172.655 218.912 170.727 C 216.565 168.827, 213.259 168.769, 207.397 170.526 C 205.943 170.962, 204.399 170.371, 202.397 168.610 L 199.500 166.063 210.750 166.032 L 222 166 221.978 161.750 C 221.927 151.932, 216.077 145.665, 206.932 145.632 C 197.200 145.597, 190.012 152.285, 189.985 161.398 L 189.971 166.500 188.721 164.030 C 187.283 161.188, 184.284 159.452, 178.250 157.968 C 171.576 156.327, 172.849 152.709, 179.731 153.761 C 182.971 154.257, 188 151.971, 188 150.003 C 188 147.405, 177.875 144.779, 172.500 145.984 M 108.655 154.829 C 106.118 157.632, 106.565 158, 112.500 158 L 118 158 118 156.535 C 118 153.127, 111.302 151.904, 108.655 154.829 M 201.531 155.250 L 199.949 157.500 205.588 157.803 C 212.191 158.158, 212.962 157.720, 210.506 155.006 C 208.042 152.284, 203.531 152.406, 201.531 155.250" stroke="none" fill="#9c6cfc" fill-rule="evenodd"/></svg>