<svg xmlns="http://www.w3.org/2000/svg" width="431" height="203" viewBox="0 0 431 203" version="1.1"><path d="" stroke="none" fill="#080404" fill-rule="evenodd"/><path d="M 339 0.709 C 332.879 2.960, 332.700 6.825, 337.863 25.168 L 341.710 38.835 334.028 46.472 L 326.347 54.108 324.337 46.578 L 322.328 39.047 325.631 37.957 C 329.701 36.614, 334.208 31.460, 333.801 28.616 C 333.533 26.742, 330.455 25.706, 306 19.261 C 287.256 14.321, 277.466 12.185, 275.254 12.551 C 271.040 13.249, 267.199 16.667, 266.057 20.733 C 264.995 24.517, 263.118 23.762, 291.776 31.085 L 309.052 35.500 310.095 39.500 C 316.085 62.469, 318.236 67.425, 323.427 70.222 C 326.560 71.909, 351.072 78, 354.731 78 C 359.996 78, 363.740 75.541, 374.500 65.017 L 384.500 55.236 400.500 59.572 C 409.300 61.957, 417.760 63.929, 419.300 63.954 C 423.293 64.020, 427.718 61.447, 429.483 58.033 C 431.823 53.507, 431.396 52.181, 427.250 51.096 C 425.188 50.557, 415.108 48, 404.851 45.414 L 386.202 40.712 382.851 28.106 C 378.040 10.006, 377.239 9.260, 357 4.022 C 348.475 1.815, 341.275 0.043, 341 0.084 C 340.725 0.125, 339.825 0.406, 339 0.709 M 348.006 15.250 C 348.009 15.938, 349.356 21.450, 351 27.500 C 352.644 33.550, 353.991 39.589, 353.994 40.920 C 353.998 42.549, 351.850 45.567, 347.423 50.152 C 343.340 54.381, 340.975 57.630, 341.185 58.721 C 341.802 61.927, 344.437 61.126, 346.242 57.183 C 348.228 52.844, 354.105 49, 358.751 49 C 360.390 49, 362.935 49.947, 364.407 51.105 L 367.083 53.211 371.042 50.591 C 373.616 48.888, 375 47.219, 375 45.819 C 375 43.070, 369.070 20.764, 368.055 19.695 C 367.360 18.964, 350.541 14, 348.757 14 C 348.341 14, 348.003 14.563, 348.006 15.250 M 27 27.781 C 11.753 31.989, 4 41.437, 4 55.811 C 4 69.004, 9.387 74.920, 26.969 81.033 C 33.158 83.184, 39.631 85.769, 41.355 86.775 C 47.801 90.540, 47.125 97.658, 39.980 101.248 C 35.415 103.542, 30.246 103.462, 24 101 C 15.494 97.647, 12.678 98.180, 6.250 104.357 C -0.253 110.606, -0.211 111.639, 6.720 116.043 C 21.336 125.330, 45.516 124.340, 57.296 113.971 C 64.900 107.277, 68.157 96.971, 66.004 86.414 C 64.960 81.298, 64.086 79.805, 59.524 75.351 C 54.738 70.677, 53.168 69.855, 42.510 66.439 C 29.828 62.375, 25 59.316, 25 55.345 C 25 47.585, 34.392 43.973, 46.295 47.156 C 48.676 47.793, 51.939 47.985, 53.559 47.584 C 56.223 46.923, 66 37.835, 66 36.019 C 66 35.605, 64.265 34.118, 62.145 32.715 C 53.409 26.934, 37.939 24.762, 27 27.781 M 353.829 57.701 C 351.628 60.226, 351.124 62.216, 352.170 64.250 C 354.376 68.539, 362.397 64.176, 361.794 59.015 C 361.561 57.023, 360.866 56.438, 358.449 56.201 C 356.471 56.008, 354.846 56.535, 353.829 57.701 M 102.727 60.408 C 100.101 61.120, 96.162 63.143, 93.972 64.903 L 89.990 68.103 89.043 65.612 C 87.713 62.114, 85.061 61, 78.066 61 L 72 61 72 107 L 72 153 76.750 152.998 C 82.998 152.996, 88.066 150.369, 90.248 146 C 91.617 143.261, 91.997 139.930, 91.998 130.682 L 92 118.864 94.750 120.779 C 100.824 125.009, 111.857 126.322, 120.236 123.811 C 126.156 122.037, 133.206 115.161, 136.399 108.045 C 145.504 87.757, 135.380 63.632, 116.453 60.516 C 114.279 60.158, 111.375 59.696, 110 59.489 C 108.625 59.283, 105.352 59.696, 102.727 60.408 M 163 60.302 C 156.329 61.824, 148.934 65.309, 146.382 68.133 C 144.523 70.189, 144.541 70.250, 147.844 73.009 C 152.343 76.767, 155.473 77.190, 161.965 74.915 C 168.891 72.488, 173.655 72.492, 177.647 74.926 C 182.080 77.629, 183.306 82.174, 182.826 94.121 C 182.442 103.672, 182.313 104.148, 179.283 107.179 C 176.699 109.762, 175.145 110.406, 170.581 110.785 C 163.678 111.357, 160 109.392, 160 105.132 C 160 101.728, 161.977 99.796, 168.180 97.137 C 173.604 94.812, 175.238 92.372, 174.808 87.236 L 174.500 83.556 169.645 83.860 C 166.975 84.027, 162.250 84.825, 159.145 85.634 C 146.542 88.916, 140.987 95.045, 141.016 105.636 C 141.038 113.298, 143.957 118.597, 150.030 121.997 C 153.830 124.125, 155.774 124.498, 163 124.488 C 171.749 124.476, 177.665 122.519, 180.962 118.546 C 182.149 117.116, 182.480 117.260, 184.087 119.903 C 185.486 122.203, 186.856 123.006, 190.252 123.515 C 192.653 123.875, 195.941 124.019, 197.559 123.835 L 200.500 123.500 200.771 102.578 C 200.985 85.999, 200.719 80.546, 199.488 76.311 C 197.523 69.552, 191.203 62.680, 185.500 61.102 C 179.033 59.312, 168.913 58.952, 163 60.302 M 224.730 62.355 C 209.961 68.596, 202.997 79.912, 204.258 95.621 C 205.204 107.415, 211.652 116.622, 222.864 122.189 C 226.854 124.170, 229.034 124.492, 238.500 124.496 C 248.852 124.500, 249.820 124.323, 254.935 121.500 C 257.924 119.850, 260.544 117.953, 260.757 117.284 C 260.970 116.615, 258.989 113.765, 256.356 110.950 C 251.775 106.052, 251.395 105.858, 247.534 106.447 C 236.605 108.117, 235.500 108.098, 232 106.186 C 227.126 103.523, 224.714 98.994, 224.714 92.500 C 224.714 82.877, 231.093 76.275, 239.250 77.457 C 241.313 77.756, 244.785 78.271, 246.967 78.602 C 250.689 79.167, 251.257 78.896, 256.130 74.248 C 259.671 70.871, 261.130 68.780, 260.710 67.686 C 260.371 66.804, 257.710 64.868, 254.797 63.386 C 250.414 61.155, 247.861 60.623, 240 60.303 C 231.654 59.964, 229.799 60.213, 224.730 62.355 M 282.579 62.103 C 267.596 67.256, 260 77.689, 260 93.115 C 260 109.770, 270.083 121.794, 286.779 125.048 C 290.233 125.721, 295.307 126.005, 298.056 125.680 C 304.795 124.882, 314.033 120.593, 318.137 116.358 L 321.500 112.887 319 110.966 C 315.417 108.213, 310.542 106, 308.059 106 C 306.883 106, 304.156 106.900, 302 108 C 299.580 109.235, 296.106 110, 292.922 110 C 288.265 110, 287.388 109.624, 283.882 106.118 C 276.845 99.081, 277.050 99, 302 99 L 324 99 323.994 93.250 C 323.986 84.494, 322.612 80.784, 318.572 78.609 C 313.934 76.111, 311.441 73.315, 308.118 66.881 C 305.967 62.718, 304.678 61.357, 302.419 60.868 C 296.524 59.593, 288.411 60.098, 282.579 62.103 M 287.643 75.028 C 283.886 76.154, 281.361 78.525, 280.116 82.097 L 279.104 85 291.052 85 C 302.891 85, 303 84.979, 303 82.674 C 303 79.144, 296.463 73.890, 292.316 74.086 C 291.317 74.133, 289.214 74.557, 287.643 75.028 M 98.418 77.969 C 95.415 79.184, 91.280 84.447, 90.485 88.068 C 87.736 100.586, 97.663 110.322, 109.834 107.045 C 121.778 103.829, 123.238 84.311, 111.971 78.485 C 108.869 76.881, 101.776 76.611, 98.418 77.969 M 121 137.692 C 107.233 140.002, 100 147.400, 100 159.168 C 100 163.263, 100.586 165.565, 102.250 168.010 C 105.723 173.113, 108.690 174.755, 119.459 177.533 C 130.493 180.379, 132.236 181.351, 131.798 184.412 C 131.368 187.425, 125.215 188.790, 119.691 187.098 C 110.137 184.173, 108.535 184.385, 103.384 189.251 C 100.317 192.150, 98.878 194.240, 99.263 195.242 C 99.587 196.089, 102.384 198.019, 105.477 199.533 C 116.265 204.811, 134.883 203.961, 143.971 197.776 C 149.350 194.116, 151.323 190.679, 151.796 184.147 C 152.612 172.867, 146.898 166.506, 133.233 163.482 C 123.072 161.233, 119.785 159.525, 120.188 156.702 C 120.696 153.150, 124.754 151.844, 131.131 153.182 C 137.950 154.612, 141.123 153.830, 145.763 149.579 C 149.005 146.608, 149.266 146.026, 148.031 144.537 C 145.721 141.754, 139.623 139.145, 132.871 138.049 C 126.357 136.992, 125.351 136.962, 121 137.692 M 178.746 138.027 C 162.712 142.058, 153 154.129, 153 170.027 C 153 186.106, 162.021 197.485, 178.017 201.583 C 186.268 203.697, 194.079 203.025, 201.691 199.546 C 206.773 197.224, 214.003 191.647, 213.998 190.054 C 213.997 189.749, 211.966 188.218, 209.485 186.650 C 204.455 183.472, 199.841 183.017, 195.394 185.260 C 187.822 189.079, 181.045 188.093, 176.091 182.451 C 174.391 180.515, 173 178.496, 173 177.965 C 173 177.374, 181.578 177, 195.139 177 L 217.277 177 216.772 168.130 C 215.958 153.851, 210.293 144.229, 200.027 139.688 C 194.922 137.430, 184.391 136.607, 178.746 138.027 M 250.625 138.469 C 248.493 139.229, 245.231 141.322, 243.375 143.121 C 241.120 145.307, 240 145.887, 240 144.870 C 240 144.033, 238.958 142.370, 237.686 141.174 C 235.753 139.358, 234.187 139, 228.186 139 L 221 139 221 170 L 221 201 230.880 201 L 240.759 201 241.190 182.250 C 241.645 162.424, 242.530 158.392, 246.945 156.030 C 250.364 154.200, 255.686 154.826, 258.694 157.412 L 261.500 159.823 262.006 176.662 C 262.329 187.423, 262.963 194.293, 263.763 195.699 C 266.019 199.660, 269.062 201, 275.802 201 L 282.159 201 281.810 177.250 C 281.432 151.411, 280.905 148.643, 275.237 142.726 C 270.380 137.655, 258.616 135.620, 250.625 138.469 M 305.344 137.991 C 289.721 141.271, 281.929 154.510, 288.250 167.034 C 291.013 172.508, 295.668 175.280, 305.931 177.564 C 315.936 179.790, 318 180.826, 318 183.625 C 318 187.945, 310.381 189.440, 303.346 186.500 C 297.072 183.879, 294.240 184.496, 289.138 189.599 L 284.538 194.198 287.716 197.037 C 291.834 200.717, 296.506 202.081, 307.179 202.719 C 327.554 203.937, 340.873 194.116, 338.550 179.588 C 337.181 171.025, 332.018 166.558, 320 163.536 C 306.581 160.161, 304.844 159.029, 306.973 155.050 C 308.259 152.647, 312.543 151.904, 317.733 153.184 C 323.534 154.616, 327.775 153.550, 332.500 149.476 L 336.500 146.026 333.500 143.530 C 327.973 138.931, 313.981 136.178, 305.344 137.991 M 364.230 138.487 C 350.530 142.341, 342.602 150.490, 339.989 163.405 C 336.947 178.437, 343.867 192.363, 357.782 199.213 C 363.846 202.199, 365.285 202.499, 373.479 202.484 C 381.059 202.471, 383.378 202.057, 388 199.894 C 394.183 197, 400 192.469, 400 190.547 C 400 189.846, 398.249 188.058, 396.108 186.575 C 391.621 183.465, 385.934 182.958, 381.424 185.264 C 376.302 187.883, 372.570 188.212, 368.128 186.435 C 364.236 184.877, 360 180.542, 360 178.115 C 360 177.388, 367.058 176.952, 381.750 176.770 L 403.500 176.500 403.825 173.092 C 404.326 167.843, 402.155 157.239, 399.511 152.021 C 396.815 146.701, 391.307 141.444, 386.189 139.305 C 381.033 137.151, 370.389 136.754, 364.230 138.487 M 176.400 155.400 C 170.446 161.354, 171.288 162, 185 162 C 195.770 162, 196.998 161.821, 196.978 160.250 C 196.950 158.062, 194.192 154.588, 191.316 153.117 C 190.114 152.503, 187.032 152, 184.466 152 C 180.493 152, 179.295 152.505, 176.400 155.400 M 364.615 154.088 C 363.155 155.237, 361.282 157.487, 360.454 159.088 L 358.949 162 371.542 162 C 384.126 162, 384.134 161.998, 383.489 159.750 C 383.134 158.512, 381.522 156.262, 379.906 154.750 C 376.105 151.192, 368.704 150.872, 364.615 154.088" stroke="none" fill="#040404" fill-rule="evenodd"/></svg>